<?xml version="1.0" encoding="UTF-8"?>
<!DOCTYPE svg PUBLIC "-//W3C//DTD SVG 1.1//EN" "http://www.w3.org/Graphics/SVG/1.1/DTD/svg11.dtd">
<!-- Creator: CorelDRAW 2020 (64 Bit) -->
<svg xmlns="http://www.w3.org/2000/svg" xml:space="preserve" width="61.1329mm" height="57.3396mm" version="1.1" style="shape-rendering:geometricPrecision; text-rendering:geometricPrecision; image-rendering:optimizeQuality; fill-rule:evenodd; clip-rule:evenodd"
viewBox="0 0 1790.78 1679.66"
 xmlns:xlink="http://www.w3.org/1999/xlink"
 xmlns:xodm="http://www.corel.com/coreldraw/odm/2003">
 <defs>
  <style type="text/css">
   <![CDATA[
    .fil0 {fill:#12B1E3;fill-rule:nonzero}
   ]]>
  </style>
 </defs>
 <g id="Camada_x0020_1">
  <metadata id="CorelCorpID_0Corel-Layer"/>
  <g id="_2312b1e3ff">
   <path class="fil0" d="M326.97 303.52c48.98,-173.82 220.74,-304.85 401.89,-303.3 353.94,-0.21 707.98,-0.52 1061.92,0.52 -22.53,196.97 -188.29,373.78 -390.11,385.05 -186.32,1.24 -372.65,1.34 -558.97,0.31 6.51,-32.55 14.05,-65 21.6,-97.35 -96,74.2 -189.63,151.39 -283.25,228.59 57.04,76.78 115.53,152.53 173.71,228.48 8.99,-31.83 17.26,-63.87 24.59,-96.11 203.99,-5.06 408.19,0.1 612.29,-2.79 6.92,-28.21 13.54,-56.42 20.05,-84.74 72.03,91.25 142.51,183.84 212.05,277.06 -113.16,93.83 -227.45,186.53 -343.19,277.16 6.72,-28.11 13.33,-56.32 19.43,-84.63 -203.37,-1.76 -406.75,0.62 -610.02,-0.93 6.51,-31.52 12.92,-63.04 18.81,-94.76 -95.38,73.06 -186.94,150.88 -281.5,224.97 56.32,77.92 114.81,154.91 177.02,228.17 6.82,-31.31 13.74,-62.62 20.77,-93.83 286.15,-4.65 572.71,-4.55 858.86,-0.62 -21.7,202.23 -197.07,377.4 -402.72,384.11 -360.04,1.24 -720.18,0.83 -1080.22,0.1 110.16,-458.11 216.08,-917.45 326.97,-1375.46z"/>
  </g>
 </g>
</svg>
